<svg width="2844" height="1624" viewBox="0 0 2844 1624" fill="none" xmlns="http://www.w3.org/2000/svg">
<path d="M1033 558C1033.77 558.235 1034.54 558.471 1035.33 558.713C1061.52 566.823 1085.76 579.724 1107 597C1107.52 597.418 1108.04 597.837 1108.58 598.268C1121.65 608.798 1133.87 620.584 1144 634C1145.16 635.528 1145.16 635.528 1146.34 637.086C1181.45 684.288 1196.49 742.599 1188.27 800.995C1187.86 803.666 1187.43 806.333 1187 809C1186.73 810.912 1186.73 810.912 1186.45 812.863C1180.13 850.812 1160.32 887.437 1135 916C1134.23 916.883 1133.46 917.766 1132.66 918.676C1123.25 929.306 1113.33 938.496 1102 947C1101.45 947.417 1100.91 947.835 1100.35 948.265C1085.24 959.777 1068.59 968.902 1051 976C1050.01 976.42 1049.02 976.84 1048 977.273C1043.62 979.112 1039.72 980.251 1035 981C1033.69 954.914 1032.97 933.798 1045.37 910.322C1048.3 904.342 1050.38 898.07 1052.44 891.75C1052.64 891.119 1052.85 890.487 1053.07 889.837C1057.02 877.713 1059.89 865.565 1062 853C1062.16 852.136 1062.32 851.271 1062.49 850.381C1065.21 835.529 1065.29 820.677 1065.31 805.625C1065.32 804.642 1065.32 803.659 1065.32 802.646C1065.35 791.266 1064.93 780.116 1063.46 768.826C1063.03 765.209 1062.78 761.638 1062.62 758C1060.49 723.263 1050.68 680.296 1024.84 654.871C1020.76 651.605 1017.05 650.403 1012 649C1011.9 700.828 1011.85 752.655 1012.41 804.481C1012.44 807.38 1012.47 810.28 1012.5 813.179C1012.7 832.113 1012.98 851.041 1013.46 869.971C1014.05 893.384 1014.12 916.785 1014.07 940.205C1014.06 945.404 1014.05 950.602 1014.05 955.801C1014.04 965.867 1014.02 975.934 1014 986C1000.02 989.526 986.746 990.322 972.377 990.261C969.373 990.25 966.371 990.261 963.367 990.273C961.419 990.272 959.471 990.27 957.523 990.266C956.645 990.27 955.766 990.274 954.861 990.278C948.096 990.228 941.64 989.261 935 988C934.094 962.113 933.608 936.233 933.331 910.333C933.322 909.525 933.313 908.717 933.304 907.885C933.234 901.315 933.234 901.315 933.202 898.157C933.107 888.833 932.957 879.515 932.687 870.194C932.559 865.63 932.468 861.066 932.384 856.501C932.337 854.439 932.272 852.377 932.188 850.316C931.571 834.914 931.571 834.914 935.112 830.171C937.644 828.157 940.187 826.586 943 825C954.74 812.468 964.086 793.747 964.14 776.401C964.146 775.312 964.152 774.223 964.158 773.1C964.159 771.92 964.16 770.74 964.161 769.525C964.166 768.27 964.171 767.016 964.176 765.724C964.188 762.296 964.196 758.869 964.2 755.442C964.203 753.3 964.207 751.158 964.212 749.016C964.225 742.313 964.235 735.609 964.239 728.905C964.243 721.17 964.261 713.434 964.29 705.698C964.311 699.713 964.322 693.728 964.323 687.743C964.324 684.17 964.33 680.597 964.348 677.024C964.367 673.045 964.363 669.066 964.356 665.087C964.37 663.308 964.37 663.308 964.384 661.493C964.379 660.412 964.373 659.331 964.367 658.218C964.369 657.277 964.37 656.336 964.372 655.367C963.93 652.557 963.272 651.665 961 650C958.5 649.5 958.5 649.5 956 650C953.781 651.645 953.077 652.54 952.615 655.29C952.611 656.194 952.606 657.099 952.601 658.03C952.589 659.069 952.576 660.108 952.563 661.179C952.565 662.318 952.566 663.458 952.568 664.632C952.557 665.832 952.547 667.032 952.537 668.268C952.512 671.56 952.5 674.85 952.494 678.141C952.484 681.581 952.458 685.02 952.434 688.459C952.39 694.972 952.362 701.485 952.339 707.998C952.311 715.413 952.268 722.827 952.222 730.242C952.129 745.495 952.058 760.747 952 776C948.7 776 945.4 776 942 776C941.994 773.699 941.994 773.699 941.989 771.351C941.952 756.915 941.895 742.479 941.816 728.044C941.776 720.622 941.744 713.2 941.729 705.778C941.716 699.309 941.689 692.841 941.645 686.373C941.623 682.948 941.607 679.522 941.608 676.096C941.609 672.274 941.579 668.453 941.546 664.632C941.551 663.492 941.556 662.353 941.561 661.179C941.547 660.14 941.533 659.101 941.519 658.03C941.515 657.126 941.512 656.222 941.508 655.29C941.185 652.848 941.185 652.848 939.132 651.174C937.02 649.76 937.02 649.76 934.375 650.188C931.85 650.857 931.85 650.857 930 653C929.686 655.257 929.686 655.257 929.721 657.91C929.71 658.948 929.699 659.985 929.688 661.055C929.684 662.769 929.684 662.769 929.681 664.518C929.671 665.718 929.661 666.918 929.651 668.154C929.625 671.45 929.608 674.745 929.595 678.04C929.58 681.482 929.553 684.924 929.527 688.366C929.48 694.886 929.444 701.406 929.411 707.926C929.372 715.348 929.323 722.77 929.273 730.192C929.169 745.461 929.08 760.731 929 776C925.37 776 921.74 776 918 776C917.994 774.466 917.988 772.931 917.982 771.351C917.925 756.915 917.853 742.479 917.764 728.044C917.719 720.622 917.68 713.2 917.654 705.778C917.631 699.309 917.597 692.841 917.551 686.373C917.527 682.948 917.509 679.522 917.502 676.096C917.495 672.275 917.465 668.453 917.432 664.632C917.434 663.492 917.435 662.353 917.437 661.179C917.424 660.14 917.412 659.101 917.399 658.03C917.392 656.674 917.392 656.674 917.385 655.29C916.923 652.539 916.225 651.64 914 650C911.458 649.583 911.458 649.583 909 650C906.462 652.538 906.743 653.429 906.721 656.948C906.71 657.994 906.699 659.04 906.688 660.118C906.684 661.846 906.684 661.846 906.681 663.61C906.671 664.82 906.661 666.029 906.651 667.276C906.625 670.598 906.608 673.92 906.595 677.242C906.58 680.712 906.553 684.182 906.527 687.652C906.48 694.225 906.444 700.798 906.411 707.371C906.372 714.854 906.323 722.336 906.273 729.819C906.169 745.212 906.08 760.606 906 776C902.04 776 898.08 776 894 776C893.67 734.75 893.34 693.5 893 651C890.03 651 887.06 651 884 651C882.326 652.674 882.86 654.717 882.846 657.017C882.837 658.105 882.829 659.192 882.82 660.312C882.816 661.516 882.811 662.72 882.807 663.961C882.799 665.221 882.791 666.482 882.782 667.78C882.756 671.978 882.741 676.177 882.727 680.375C882.721 681.824 882.716 683.272 882.71 684.721C882.689 690.758 882.67 696.796 882.659 702.833C882.643 711.457 882.61 720.08 882.552 728.704C882.513 734.779 882.494 740.854 882.489 746.929C882.485 750.549 882.474 754.168 882.441 757.787C882.311 772.87 882.281 786.846 888 801C888.322 801.85 888.644 802.7 888.976 803.576C894.039 816.083 901.959 826.63 914 833C914.13 848.449 913.969 863.87 913.562 879.312C912.977 901.601 912.709 923.893 912.437 946.188C912.426 947.097 912.415 948.007 912.404 948.944C912.265 960.296 912.131 971.648 912 983C910.103 982.536 908.206 982.069 906.31 981.601C905.254 981.342 904.197 981.082 903.109 980.815C875.363 973.545 848.485 957.821 827 939C826.21 938.319 825.42 937.639 824.605 936.938C813.074 926.804 802.419 916.058 793.275 903.715C792.041 902.056 790.783 900.418 789.519 898.781C769.32 872.114 756.378 838.865 751 806C750.734 804.557 750.734 804.557 750.463 803.084C748.746 792.86 748.662 782.734 748.684 772.389C748.687 769.401 748.664 766.414 748.639 763.426C748.583 746.786 750.317 730.655 754.687 714.562C755.068 713.14 755.068 713.14 755.456 711.689C764.865 677.668 781.921 646.798 806 621C807.438 619.354 808.875 617.708 810.312 616.062C840.786 582.384 884.763 560.343 929 552C929.86 551.838 930.72 551.675 931.606 551.508C964.872 545.564 1000.82 547.847 1033 558Z" fill="#F7F1E0"/>
<path d="M1479.11 549.023C1479.94 549.017 1480.77 549.012 1481.63 549.006C1484.28 548.995 1486.93 549.001 1489.58 549.011C1490.49 549.011 1491.39 549.012 1492.32 549.012C1507.29 549.037 1522.07 549.583 1536.64 553.323C1536.67 565.017 1536.68 576.711 1536.7 588.405C1536.7 593.838 1536.71 599.271 1536.72 604.703C1536.73 609.968 1536.74 615.233 1536.74 620.498C1536.74 622.485 1536.74 624.471 1536.75 626.457C1536.78 637.063 1536.64 647.636 1536.17 658.233C1535.54 672.589 1535.31 686.947 1535.11 701.314C1535.08 703.59 1535.05 705.866 1535.02 708.142C1534.54 742.915 1534.52 777.687 1534.57 812.463C1534.58 820.776 1534.59 829.09 1534.59 837.403C1534.6 854.376 1534.62 871.35 1534.64 888.323C1540.06 888.42 1542.28 887.923 1546.44 884.523C1572.01 858.953 1581.21 817.985 1584.77 783.323C1584.88 782.224 1584.88 782.224 1585 781.102C1586.49 765.38 1586.86 749.649 1586.88 733.867C1586.89 730.657 1586.92 727.448 1586.96 724.239C1587.05 705.53 1585.26 687.213 1580.83 669.011C1580.57 667.925 1580.31 666.838 1580.05 665.719C1577.77 656.384 1574.97 647.332 1571.64 638.323C1571.33 637.469 1571.02 636.614 1570.7 635.733C1569.69 632.988 1568.67 630.249 1567.64 627.511C1567.34 626.687 1567.03 625.864 1566.71 625.015C1566.4 624.203 1566.09 623.391 1565.77 622.554C1565.28 621.281 1565.28 621.281 1564.79 619.982C1563.68 617.263 1563.68 617.263 1562.07 614.632C1555.97 603.725 1556.97 592.679 1557.27 580.511C1557.3 578.354 1557.33 576.197 1557.35 574.04C1557.42 568.8 1557.52 563.562 1557.64 558.323C1587.22 563.653 1616.8 584.351 1638.42 604.292C1640.41 606.113 1642.45 607.844 1644.52 609.573C1674.76 636.119 1697.33 676.501 1706.04 715.639C1706.46 717.499 1706.89 719.354 1707.34 721.207C1720.15 775.498 1709.75 835.68 1680.95 883.234C1674.56 893.485 1667.55 903.187 1659.64 912.323C1658.95 913.128 1658.26 913.932 1657.54 914.761C1631.63 944.156 1598.19 967.503 1560.64 979.323C1559.82 979.584 1559 979.844 1558.15 980.113C1539.45 985.96 1520.48 989.384 1500.85 989.562C1499.95 989.571 1499.05 989.581 1498.12 989.591C1479.58 989.751 1461.73 989.885 1443.64 985.323C1442.03 984.956 1440.41 984.59 1438.8 984.226C1406.2 976.567 1374.72 960.526 1349.64 938.323C1348.87 937.657 1348.09 936.99 1347.3 936.304C1334.87 925.411 1323.29 913.766 1313.64 900.323C1313.16 899.655 1312.68 898.987 1312.19 898.298C1299.63 880.605 1290.13 861.656 1282.64 841.323C1282.39 840.662 1282.14 840 1281.89 839.318C1262.88 788.615 1267.66 728.448 1289.18 679.433C1298.67 658.576 1310.89 639.574 1326.44 622.718C1327.92 621.11 1329.38 619.481 1330.82 617.835C1355.16 590.036 1388.05 571.219 1422.64 559.323C1423.76 558.913 1424.87 558.503 1426.02 558.081C1428.71 557.304 1430.86 557.267 1433.64 557.323C1434.25 582.321 1434.8 607.319 1435.28 632.319C1435.47 642.326 1435.68 652.332 1435.98 662.336C1436.16 668.268 1436.28 674.199 1436.38 680.133C1436.43 682.453 1436.5 684.773 1436.59 687.092C1437.23 704.314 1437.23 704.314 1433.3 709.285C1430.51 711.31 1427.74 712.811 1424.64 714.323C1413.83 723.942 1407.99 740.484 1405.64 754.323C1405.38 755.773 1405.38 755.773 1405.12 757.253C1404.37 762.628 1404.5 768.036 1404.5 773.453C1404.49 774.659 1404.49 775.864 1404.49 777.107C1404.48 780.396 1404.48 783.685 1404.48 786.973C1404.48 789.029 1404.47 791.085 1404.47 793.141C1404.46 800.316 1404.46 807.49 1404.46 814.665C1404.46 821.352 1404.45 828.038 1404.43 834.724C1404.42 840.472 1404.41 846.219 1404.41 851.966C1404.42 855.396 1404.41 858.826 1404.4 862.256C1404.39 866.074 1404.39 869.893 1404.4 873.711C1404.4 874.849 1404.39 875.986 1404.38 877.159C1404.39 878.196 1404.39 879.233 1404.4 880.302C1404.4 881.205 1404.4 882.107 1404.39 883.037C1404.5 885.602 1404.5 885.602 1406.64 888.323C1410.14 888.823 1410.14 888.823 1413.64 888.323C1415.82 885.058 1415.9 884.113 1415.92 880.331C1415.93 879.3 1415.94 878.27 1415.96 877.208C1415.96 875.513 1415.96 875.513 1415.96 873.784C1415.98 871.998 1415.98 871.998 1415.99 870.176C1416.02 866.912 1416.04 863.648 1416.05 860.384C1416.06 856.972 1416.09 853.561 1416.12 850.15C1416.16 843.69 1416.2 837.23 1416.23 830.771C1416.27 823.416 1416.32 816.062 1416.37 808.708C1416.47 793.58 1416.56 778.452 1416.64 763.323C1420.27 763.323 1423.9 763.323 1427.64 763.323C1427.65 764.845 1427.66 766.367 1427.67 767.935C1427.75 782.253 1427.83 796.571 1427.93 810.888C1427.98 818.25 1428.03 825.611 1428.07 832.973C1428.1 839.388 1428.14 845.804 1428.19 852.219C1428.21 855.617 1428.23 859.014 1428.25 862.412C1428.26 866.203 1428.29 869.993 1428.32 873.784C1428.33 874.914 1428.33 876.044 1428.33 877.208C1428.34 878.238 1428.35 879.269 1428.37 880.331C1428.37 881.228 1428.38 882.125 1428.38 883.049C1428.5 885.603 1428.5 885.603 1430.64 888.323C1432.62 888.686 1432.62 888.686 1434.77 888.511C1436.69 888.418 1436.69 888.418 1438.64 888.323C1439.63 885.368 1439.78 883.415 1439.8 880.331C1439.81 879.3 1439.82 878.27 1439.83 877.208C1439.84 876.078 1439.84 874.948 1439.85 873.784C1439.86 872.593 1439.87 871.403 1439.88 870.176C1439.91 866.912 1439.93 863.648 1439.95 860.384C1439.97 856.972 1440 853.561 1440.02 850.15C1440.07 843.69 1440.12 837.23 1440.16 830.771C1440.21 823.416 1440.27 816.062 1440.32 808.708C1440.43 793.58 1440.54 778.452 1440.64 763.323C1444.27 763.323 1447.9 763.323 1451.64 763.323C1451.65 764.86 1451.66 766.396 1451.67 767.979C1451.75 782.43 1451.83 796.881 1451.93 811.331C1451.98 818.761 1452.03 826.191 1452.07 833.621C1452.1 840.096 1452.14 846.57 1452.19 853.044C1452.21 856.474 1452.23 859.903 1452.25 863.333C1452.26 867.157 1452.29 870.981 1452.32 874.805C1452.33 875.948 1452.33 877.091 1452.33 878.269C1452.34 879.306 1452.35 880.344 1452.37 881.413C1452.37 882.318 1452.38 883.224 1452.38 884.156C1452.44 886.534 1452.44 886.534 1454.64 888.323C1457.64 888.657 1457.64 888.657 1460.64 888.323C1463.17 885.792 1462.9 884.921 1462.92 881.413C1462.93 880.376 1462.94 879.338 1462.96 878.269C1462.96 876.554 1462.96 876.554 1462.96 874.805C1462.98 873.005 1462.98 873.005 1462.99 871.169C1463.02 867.874 1463.04 864.579 1463.05 861.283C1463.06 857.841 1463.09 854.399 1463.12 850.957C1463.16 844.437 1463.2 837.917 1463.23 831.397C1463.27 823.975 1463.32 816.553 1463.37 809.131C1463.47 793.862 1463.56 778.593 1463.64 763.323C1467.27 763.323 1470.9 763.323 1474.64 763.323C1474.65 764.845 1474.66 766.367 1474.67 767.935C1474.75 782.253 1474.83 796.571 1474.93 810.888C1474.98 818.25 1475.03 825.611 1475.07 832.973C1475.1 839.388 1475.14 845.804 1475.19 852.219C1475.21 855.617 1475.23 859.014 1475.25 862.412C1475.26 866.203 1475.29 869.993 1475.32 873.784C1475.33 874.914 1475.33 876.044 1475.33 877.208C1475.34 878.238 1475.35 879.269 1475.37 880.331C1475.37 881.228 1475.38 882.125 1475.38 883.049C1475.5 885.603 1475.5 885.603 1477.64 888.323C1479.62 888.686 1479.62 888.686 1481.77 888.511C1483.69 888.418 1483.69 888.418 1485.64 888.323C1486.64 885.324 1486.78 883.314 1486.8 880.18C1486.81 879.115 1486.81 878.05 1486.82 876.952C1486.83 875.784 1486.83 874.615 1486.84 873.411C1486.84 872.179 1486.85 870.948 1486.86 869.679C1486.89 865.589 1486.9 861.499 1486.92 857.409C1486.92 855.996 1486.93 854.583 1486.93 853.169C1486.95 847.279 1486.97 841.389 1486.98 835.499C1487 827.094 1487.03 818.69 1487.09 810.285C1487.13 804.359 1487.15 798.433 1487.15 792.506C1487.16 788.977 1487.17 785.448 1487.2 781.919C1487.43 756.437 1483.72 736.095 1467.31 715.983C1464.84 713.321 1464.84 713.321 1462.22 711.792C1458.29 709.198 1455.17 707.133 1453.81 702.487C1453.61 698.851 1453.74 695.342 1453.96 691.706C1454.01 690.249 1454.05 688.792 1454.09 687.334C1454.18 683.961 1454.3 680.591 1454.44 677.219C1454.69 670.581 1454.78 663.941 1454.87 657.299C1454.9 655.426 1454.9 655.426 1454.92 653.515C1454.96 650.918 1454.99 648.321 1455.03 645.724C1455.12 639.042 1455.24 632.361 1455.35 625.679C1455.38 624.318 1455.4 622.957 1455.43 621.596C1455.46 619.54 1455.5 617.484 1455.53 615.429C1455.66 608.42 1455.78 601.41 1455.9 594.401C1456.14 580.042 1456.39 565.683 1456.64 551.323C1464.16 550.045 1471.48 549.015 1479.11 549.023Z" fill="#F7F1E0"/>
<path d="M2262 549C2342.19 549 2422.38 549 2505 549C2505 568.47 2505 587.94 2505 608C2502.69 608 2500.38 608 2498 608C2497.67 606.532 2497.67 606.532 2497.34 605.035C2494.6 593.449 2490.46 583.701 2480 577C2472.66 573.859 2465.27 571.894 2457.27 571.842C2456.13 571.832 2454.99 571.822 2453.82 571.812C2452.57 571.806 2451.32 571.801 2450.04 571.795C2448.69 571.785 2447.34 571.775 2445.98 571.764C2442.37 571.737 2438.75 571.716 2435.14 571.696C2431.74 571.676 2428.35 571.652 2424.95 571.627C2415.03 571.559 2405.11 571.499 2395.19 571.438C2373.02 571.293 2350.84 571.149 2328 571C2328 623.8 2328 676.6 2328 731C2355.38 730.876 2355.38 730.876 2383.31 730.75C2389.06 730.734 2394.81 730.718 2400.73 730.702C2405.91 730.669 2405.91 730.669 2411.1 730.63C2413.4 730.616 2415.69 730.609 2417.99 730.608C2421.48 730.606 2424.98 730.579 2428.47 730.546C2429.48 730.551 2430.49 730.556 2431.53 730.561C2441.52 730.416 2451.25 727.54 2458.59 720.473C2463.89 714.767 2466.04 708.682 2467 701C2469.31 701 2471.62 701 2474 701C2474 727.07 2474 753.14 2474 780C2471.69 780 2469.38 780 2467 780C2466.89 779.056 2466.89 779.056 2466.77 778.094C2465.52 769.958 2462.33 764.522 2456 759.25C2442.91 751.181 2427.33 752.395 2412.57 752.391C2410.4 752.377 2408.23 752.361 2406.06 752.343C2398.08 752.291 2390.1 752.272 2382.12 752.25C2355.33 752.126 2355.33 752.126 2328 752C2328 815.36 2328 878.72 2328 944C2351.57 943.876 2375.15 943.752 2399.44 943.625C2406.87 943.591 2414.31 943.557 2421.97 943.522C2428.65 943.482 2428.65 943.482 2435.33 943.44C2438.3 943.421 2441.27 943.407 2444.24 943.397C2448.04 943.384 2451.83 943.362 2455.63 943.333C2457.67 943.319 2459.71 943.316 2461.75 943.312C2475.93 943.183 2486.83 940.256 2497.31 930.25C2507.66 919.282 2512.04 906.752 2514 892C2515.98 892 2517.96 892 2520 892C2520 916.42 2520 940.84 2520 966C2434.53 966 2349.06 966 2261 966C2261 963.69 2261 961.38 2261 959C2261.58 958.986 2262.16 958.972 2262.76 958.957C2267.62 958.66 2271.02 958.121 2274.66 954.555C2284.02 943.67 2285.6 930.084 2285.5 916.179C2285.51 914.739 2285.51 913.3 2285.52 911.86C2285.53 907.945 2285.52 904.03 2285.51 900.115C2285.5 895.877 2285.51 891.64 2285.52 887.402C2285.53 879.117 2285.52 870.832 2285.51 862.547C2285.49 852.889 2285.5 843.231 2285.5 833.573C2285.51 816.338 2285.49 799.102 2285.47 781.866C2285.44 765.158 2285.44 748.45 2285.45 731.742C2285.46 713.525 2285.46 695.307 2285.44 677.089C2285.44 675.145 2285.44 673.202 2285.44 671.258C2285.44 670.302 2285.44 669.345 2285.44 668.36C2285.43 661.635 2285.44 654.909 2285.44 648.183C2285.44 639.985 2285.44 631.787 2285.42 623.588C2285.41 619.409 2285.4 615.229 2285.41 611.049C2285.42 607.218 2285.41 603.388 2285.39 599.556C2285.39 597.525 2285.4 595.494 2285.41 593.463C2285.32 580.976 2282.91 569.977 2274.56 560.336C2270.77 556.807 2266.93 555.935 2262 555C2262 553.02 2262 551.04 2262 549Z" fill="#F6F1E0"/>
<path d="M1784 549C1867.82 549 1951.64 549 2038 549C2036.57 553.303 2035.22 556.769 2033.16 560.719C2032.6 561.804 2032.04 562.89 2031.46 564.008C2030.85 565.161 2030.25 566.313 2029.62 567.5C2028.99 568.715 2028.36 569.929 2027.72 571.144C2023.4 579.413 2018.97 587.616 2014.47 595.789C2010.71 602.64 2007.09 609.556 2003.5 616.5C1999.45 624.345 1995.32 632.139 1991.06 639.875C1986.58 648.019 1982.26 656.236 1978 664.5C1973.28 673.668 1968.44 682.759 1963.47 691.793C1959.71 698.643 1956.09 705.558 1952.5 712.5C1948.45 720.345 1944.32 728.139 1940.06 735.875C1935.58 744.019 1931.26 752.236 1927 760.5C1922.28 769.668 1917.44 778.759 1912.47 787.793C1908.71 794.643 1905.09 801.558 1901.5 808.5C1897.45 816.345 1893.32 824.139 1889.06 831.875C1883.95 841.16 1879.06 850.551 1874.21 859.972C1870.1 867.931 1865.86 875.807 1861.54 883.652C1856.96 891.999 1852.6 900.454 1848.24 908.918C1842.98 919.094 1837.53 929.156 1831.99 939.182C1831.3 940.442 1830.64 941.716 1830 943C1851.64 943.047 1873.27 943.082 1894.91 943.104C1904.95 943.114 1915 943.128 1925.05 943.151C1933.8 943.171 1942.56 943.184 1951.32 943.188C1955.95 943.191 1960.59 943.197 1965.23 943.211C1969.59 943.225 1973.96 943.229 1978.33 943.226C1979.93 943.227 1981.53 943.231 1983.12 943.238C1996.5 943.3 2005.92 942.325 2016.14 933.062C2026.23 922.609 2029.76 908.971 2032 895C2033.98 895 2035.96 895 2038 895C2038 918.43 2038 941.86 2038 966C1948.9 966 1859.8 966 1768 966C1769.48 962.296 1771.01 958.904 1772.84 955.379C1773.68 953.746 1773.68 953.746 1774.54 952.08C1775.15 950.919 1775.75 949.758 1776.38 948.562C1776.69 947.962 1777 947.362 1777.32 946.743C1781.92 937.885 1786.64 929.096 1791.46 920.352C1795.42 913.127 1799.23 905.826 1803 898.5C1807.72 889.332 1812.56 880.241 1817.53 871.207C1821.29 864.357 1824.91 857.442 1828.5 850.5C1832.6 842.572 1836.76 834.695 1841.06 826.875C1846.73 816.556 1852.19 806.131 1857.61 795.68C1863.96 783.456 1870.44 771.303 1876.95 759.166C1882.29 749.212 1887.59 739.236 1892.88 729.25C1893.25 728.538 1893.63 727.826 1894.02 727.093C1894.78 725.651 1895.54 724.209 1896.3 722.766C1896.68 722.052 1897.06 721.338 1897.45 720.602C1897.83 719.887 1898.2 719.173 1898.59 718.437C1902.62 710.829 1906.65 703.226 1910.69 695.625C1911.21 694.636 1911.21 694.636 1911.75 693.626C1915.48 686.605 1919.22 679.587 1922.98 672.582C1923.3 671.984 1923.62 671.386 1923.95 670.769C1925.52 667.839 1927.1 664.909 1928.67 661.979C1933.19 653.56 1937.6 645.094 1942 636.611C1944.97 630.898 1948.09 625.337 1951.39 619.809C1953.54 616.059 1955.43 612.197 1957.32 608.319C1961.13 600.597 1965.22 593.022 1969.29 585.43C1970.04 584.026 1970.79 582.622 1971.54 581.219C1973.36 577.812 1975.18 574.406 1977 571C1957.35 571.061 1937.71 571.138 1918.06 571.236C1908.94 571.281 1899.82 571.32 1890.7 571.346C1882.74 571.369 1874.79 571.403 1866.83 571.449C1862.62 571.473 1858.42 571.491 1854.21 571.498C1850.24 571.504 1846.27 571.524 1842.3 571.554C1840.85 571.563 1839.4 571.567 1837.95 571.565C1825.13 571.554 1815.47 572.933 1806 582C1795.85 592.828 1792.12 605.567 1791 620C1788.69 620 1786.38 620 1784 620C1784 596.57 1784 573.14 1784 549Z" fill="#F6F0DF"/>
<path d="M391 549C471.19 549 551.38 549 634 549C634 568.47 634 587.94 634 608C631.69 608 629.38 608 627 608C626.89 607.215 626.781 606.43 626.668 605.621C625.009 594.629 621.95 585.672 613.059 578.387C605.815 573.507 597.69 571.897 589.077 571.842C587.919 571.832 586.76 571.822 585.567 571.812C583.674 571.804 583.674 571.804 581.743 571.795C580.37 571.785 578.998 571.775 577.625 571.764C573.961 571.737 570.296 571.716 566.631 571.696C563.188 571.676 559.745 571.652 556.302 571.627C546.243 571.559 536.184 571.499 526.125 571.438C503.644 571.293 481.163 571.149 458 571C458 623.8 458 676.6 458 731C476.088 730.917 494.176 730.835 512.812 730.75C518.507 730.734 524.202 730.718 530.07 730.702C535.209 730.669 535.209 730.669 540.349 730.63C542.624 730.616 544.9 730.609 547.175 730.608C550.638 730.606 554.099 730.579 557.562 730.546C558.562 730.551 559.562 730.556 560.593 730.561C570.518 730.415 580.364 727.552 587.586 720.438C592.88 714.653 595.201 708.831 596 701C598.31 701 600.62 701 603 701C603 727.07 603 753.14 603 780C600.69 780 598.38 780 596 780C595.865 779.227 595.729 778.453 595.59 777.656C593.798 768.988 591.092 763.542 583.754 758.438C576.05 753.865 568.709 753.843 559.946 753.795C558.843 753.785 557.74 753.775 556.603 753.765C552.967 753.733 549.331 753.708 545.695 753.684C543.17 753.663 540.645 753.642 538.121 753.621C532.16 753.571 526.2 753.526 520.24 753.483C513.451 753.433 506.663 753.378 499.874 753.323C485.916 753.209 471.958 753.102 458 753C458.014 776.488 458.056 799.976 458.132 823.464C458.167 834.371 458.192 845.278 458.196 856.185C458.199 865.696 458.219 875.207 458.261 884.719C458.282 889.751 458.294 894.782 458.286 899.814C458.279 904.56 458.295 909.306 458.328 914.051C458.336 915.784 458.336 917.516 458.327 919.249C458.26 932.808 459.55 945.35 469.449 955.645C472.086 957.949 474.216 958.222 477.625 958.562C478.442 958.646 479.26 958.73 480.102 958.816C480.728 958.877 481.355 958.938 482 959C482 961.31 482 963.62 482 966C451.97 966 421.94 966 391 966C391 964.02 391 962.04 391 960C391.58 959.914 392.16 959.827 392.758 959.738C393.539 959.598 394.32 959.457 395.125 959.312C396.274 959.121 396.274 959.121 397.445 958.926C403.946 956.57 406.913 952.092 409.812 946.062C410.111 945.468 410.409 944.873 410.717 944.26C413.519 938.471 414.124 933.129 414.134 926.764C414.139 925.526 414.143 924.287 414.148 923.012C414.148 921.645 414.147 920.279 414.147 918.913C414.15 917.456 414.154 915.998 414.158 914.541C414.168 910.539 414.172 906.538 414.175 902.537C414.179 898.22 414.188 893.902 414.197 889.585C414.217 879.163 414.227 868.74 414.236 858.318C414.24 853.407 414.245 848.497 414.251 843.587C414.268 827.261 414.282 810.935 414.289 794.61C414.291 790.375 414.293 786.141 414.295 781.906C414.296 780.854 414.296 779.802 414.297 778.717C414.305 761.666 414.33 744.616 414.363 727.565C414.396 710.053 414.414 692.541 414.417 675.029C414.419 665.199 414.428 655.369 414.453 645.539C414.475 637.168 414.483 628.798 414.474 620.427C414.469 616.159 414.471 611.89 414.49 607.621C414.508 603.709 414.507 599.796 414.491 595.883C414.489 594.473 414.493 593.062 414.505 591.652C414.605 579.043 412.359 568.507 403.312 559.25C399.665 556.334 395.529 555.674 391 555C391 553.02 391 551.04 391 549Z" fill="#F5EFDE"/>
<path d="M2098 549C2127.7 549 2157.4 549 2188 549C2188 550.98 2188 552.96 2188 555C2187.35 555.135 2186.7 555.271 2186.02 555.41C2179.31 557.063 2175.71 559.148 2172 565C2166.3 574.609 2165.71 583.178 2165.75 594.189C2165.74 595.646 2165.74 597.102 2165.74 598.558C2165.73 602.552 2165.73 606.545 2165.74 610.539C2165.74 614.849 2165.74 619.159 2165.73 623.47C2165.72 631.91 2165.72 640.351 2165.73 648.791C2165.73 655.652 2165.73 662.512 2165.73 669.373C2165.73 670.838 2165.73 670.838 2165.73 672.332C2165.73 674.315 2165.73 676.299 2165.73 678.283C2165.72 696.884 2165.73 715.486 2165.74 734.087C2165.75 750.046 2165.75 766.004 2165.74 781.963C2165.73 800.497 2165.72 819.03 2165.73 837.563C2165.73 839.54 2165.73 841.517 2165.73 843.493C2165.73 844.466 2165.73 845.438 2165.73 846.44C2165.74 853.292 2165.73 860.143 2165.73 866.994C2165.72 875.345 2165.72 883.696 2165.73 892.047C2165.74 896.307 2165.74 900.567 2165.73 904.827C2165.73 908.729 2165.73 912.63 2165.74 916.531C2165.74 917.941 2165.74 919.351 2165.74 920.761C2165.69 934.6 2168 946.745 2178 957C2181.12 959.113 2184.3 959.495 2188 960C2188 961.98 2188 963.96 2188 966C2158.3 966 2128.6 966 2098 966C2098 964.02 2098 962.04 2098 960C2098.56 959.96 2099.11 959.92 2099.69 959.879C2106 959.015 2109.23 956.684 2113.21 951.77C2120.71 940.179 2121.15 928.394 2121.15 915.072C2121.15 913.644 2121.15 912.216 2121.16 910.788C2121.17 906.873 2121.17 902.957 2121.17 899.042C2121.18 894.815 2121.19 890.589 2121.2 886.362C2121.22 876.161 2121.23 865.96 2121.24 855.759C2121.24 850.951 2121.25 846.143 2121.25 841.335C2121.27 825.346 2121.28 809.358 2121.29 793.369C2121.29 789.223 2121.29 785.077 2121.3 780.932C2121.3 779.901 2121.3 778.871 2121.3 777.809C2121.3 761.119 2121.33 744.428 2121.36 727.738C2121.4 710.589 2121.41 693.441 2121.42 676.293C2121.42 666.67 2121.43 657.047 2121.45 647.424C2121.48 639.228 2121.48 631.033 2121.47 622.838C2121.47 618.66 2121.47 614.483 2121.49 610.305C2121.51 606.473 2121.51 602.641 2121.49 598.809C2121.49 596.782 2121.5 594.755 2121.52 592.727C2121.44 580.941 2119.15 569.005 2111 560C2107.09 556.831 2103 555.488 2098 555C2098 553.02 2098 551.04 2098 549Z" fill="#F6F0DF"/>
</svg>
